# xmcd
#
# Track frame offsets: 
#        150
#        15083
#        29521
#        48390
#        62187
#        78791
#        92275
#        104016
#        118680
#        130954
#        152750
#        181622
#        198192
#        213993
#        229550
#        251625
#        274857
#        291758
#        306655
#        323995
#
# Disc length: 4518 seconds
#
# Revision: 0
# Processed by: cddbd v1.5.2PL0 Copyright (c) Steve Scherf et al.
# Submitted via: ExactAudioCopyFreeDBPlugin 1.0
#
DISCID=1011a414
DTITLE=Diamond Rio - The Definitive Hits Collection
DYEAR=2016
DGENRE=Country
TTITLE0=Meet In The Middle
TTITLE1=Mirror Mirror
TTITLE2=Mama Don't Forget To Pray For Me
TTITLE3=Norma Jean Riley
TTITLE4=Nowhere Bound
TTITLE5=In A Week Or Two
TTITLE6=Close To The Edge
TTITLE7=Oh Me, Oh My, Sweet Baby
TTITLE8=This Romeo Ain't Got Julie Yet
TTITLE9=Sawmill Road
TTITLE10=Lyin' Eyes
TTITLE11=Love A Little Stronger
TTITLE12=Night Is Fallin' In My Heart
TTITLE13=Ten Feet Away
TTITLE14=Kentucky Mine
TTITLE15=Workin' Man Blues
TTITLE16=Bubba Hyde
TTITLE17=Finish What We Started
TTITLE18=Walkin' Away
TTITLE19=That's What I Get For Loving You
EXTD=
EXTT0=
EXTT1=
EXTT2=
EXTT3=
EXTT4=
EXTT5=
EXTT6=
EXTT7=
EXTT8=
EXTT9=
EXTT10=
EXTT11=
EXTT12=
EXTT13=
EXTT14=
EXTT15=
EXTT16=
EXTT17=
EXTT18=
EXTT19=
PLAYORDER=
